<svg xmlns="http://www.w3.org/2000/svg" version="1.1" xmlns:xlink="http://www.w3.org/1999/xlink" xmlns:svgjs="http://svgjs.dev/svgjs" width="1000" height="1042" viewBox="0 0 1000 1042"><g transform="matrix(1,0,0,1,-0.46364366920465727,0.42186234817813784)"><svg viewBox="0 0 237 247" data-background-color="#ffffff" preserveAspectRatio="xMidYMid meet" height="1042" width="1000" xmlns="http://www.w3.org/2000/svg" xmlns:xlink="http://www.w3.org/1999/xlink"><g id="tight-bounds" transform="matrix(1,0,0,1,0.1098838922588925,-0.09999999999999432)"><svg viewBox="0 0 236.78023255813957 247.2" height="247.2" width="236.78023255813957"><g><svg viewBox="0 0 236.78023255813957 247.2" height="247.2" width="236.78023255813957"><g><svg viewBox="0 0 236.78023255813957 247.2" height="247.2" width="236.78023255813957"><g id="textblocktransform"><svg viewBox="0 0 236.78023255813957 247.2" height="247.2" width="236.78023255813957" id="textblock"><g><svg viewBox="0 0 236.78023255813957 247.2" height="247.2" width="236.78023255813957"><g transform="matrix(1,0,0,1,0,0)"><svg width="236.78023255813957" viewBox="3.700000047683716 -34.400001525878906 32.95000076293945 34.400001525878906" height="247.2" data-palette-color="#ff0000"><path d="M18.6-34.4Q36.65-34.4 36.65-17.2L36.65-17.2Q36.65 0 18.6 0L18.6 0 3.7 0 3.7-34.4 18.6-34.4ZM14.75-26.15L14.75-8.25 18.4-8.25Q25.35-8.25 25.35-15.7L25.35-15.7 25.35-18.7Q25.35-26.15 18.4-26.15L18.4-26.15 14.75-26.15Z" opacity="1" transform="matrix(1,0,0,1,0,0)" fill="#ff0000" class="wordmark-text-0" data-fill-palette-color="primary" id="text-0"></path></svg></g></svg></g></svg></g></svg></g></svg></g><defs></defs></svg><rect width="236.78023255813957" height="247.2" fill="none" stroke="none" visibility="hidden"></rect></g></svg></g></svg>